# xmcd
#
# Track frame offsets:
#	150
#	11122
#	25925
#	40805
#	54687
#	69827
#	87087
#	100677
#	115067
#	126420
#	141737
#	156897
#	173980
#	189985
#
# Disc length: 2748 seconds
#
# Revision: 2
# Processed by: cddbd v1.4PL0 Copyright (c) Steve Scherf et al.
# Submitted via: audiograbber 1.82.00
#
DISCID=bd0aba0e
DTITLE=Various Artist - Hot Hits Country Vol. 3
DYEAR=1993
DGENRE=Country
TTITLE0=Alan Jackson - She's Got The Rhythm
TTITLE1=Tracy Lawrence - Somebody Paints The Wall
TTITLE2=Reba McEntire - Take It Back
TTITLE3=Lee Roy Parnell - Love Without Mercy - 
TTITLE4=Confederate Railroad - Queen Of Memphis
TTITLE5=Brooks And Dunn - Lost And Found
TTITLE6=Diamond Rio - In A Week Or Two
TTITLE7=John Michael Montgomery - Life's A Dance
TTITLE8=Sammy Karshaw - Anywhere But Here
TTITLE9=Clinton Gregory - Who Needs It
TTITLE10=Little Texas - What Were You Thinking
TTITLE11=McBride And The Ride - Just One Night 
TTITLE12=Marty Stuart - High On A Mountain Top
TTITLE13=Travis Tritt - Can I Trust You With My Heart
EXTD=
EXTT0=
EXTT1=
EXTT2=
EXTT3=
EXTT4=
EXTT5=
EXTT6=
EXTT7=
EXTT8=
EXTT9=
EXTT10=
EXTT11=
EXTT12=
EXTT13=
PLAYORDER=
